<svg width="55" height="44" viewBox="0 0 55 44" fill="none" xmlns="http://www.w3.org/2000/svg">
<path d="M23.3098 3.64307L21.3281 0.596191C7.61719 9.81238 0 21.0103 0 30.2264C0 39.1379 6.552 43.328 12.1119 43.328C19.1197 43.328 24.0703 37.3854 24.0703 31.1405C24.0703 25.8853 20.7188 21.3905 16.224 19.7135C14.9297 19.2553 13.7109 18.875 13.7109 16.6666C13.7109 13.8489 15.7682 9.66125 23.3098 3.64307ZM53.5494 3.64307L51.5677 0.596191C38.0079 9.81238 30.2396 21.0103 30.2396 30.2264C30.2396 39.1379 36.9427 43.328 42.5027 43.328C49.5861 43.328 54.6146 37.3854 54.6146 31.1405C54.6146 25.8853 51.1875 21.3905 46.5392 19.7135C45.2449 19.2553 44.1017 18.875 44.1017 16.6666C44.1017 13.8489 46.2345 9.65882 53.547 3.64063L53.5494 3.64307Z" fill="#FF737E"/>
</svg>
