<svg width="92" height="92" viewBox="0 0 92 92" fill="none" xmlns="http://www.w3.org/2000/svg">
<circle cx="46" cy="46" r="46" fill="#DCDCDC"/>
<path fill-rule="evenodd" clip-rule="evenodd" d="M46 45.625C46.6213 45.625 47.125 46.1287 47.125 46.75V47.875H48.25C48.8713 47.875 49.375 48.3787 49.375 49C49.375 49.6213 48.8713 50.125 48.25 50.125H47.125V51.25C47.125 51.8713 46.6213 52.375 46 52.375C45.3787 52.375 44.875 51.8713 44.875 51.25V50.125H43.75C43.1287 50.125 42.625 49.6213 42.625 49C42.625 48.3787 43.1287 47.875 43.75 47.875H44.875V46.75C44.875 46.1287 45.3787 45.625 46 45.625Z" fill="#1B1B1B"/>
<path fill-rule="evenodd" clip-rule="evenodd" d="M45.922 29.875C44.5743 29.875 43.4504 29.8749 42.5583 29.9949C41.6166 30.1215 40.7664 30.4 40.0832 31.0832C39.4 31.7664 39.1215 32.6166 38.9949 33.5583C38.8749 34.4505 38.875 35.5743 38.875 36.922V37.0386C35.8432 37.1378 34.0227 37.492 32.7574 38.7574C31 40.5147 31 43.3432 31 49C31 54.6568 31 57.4854 32.7574 59.2426C34.5147 61 37.3431 61 43 61H49C54.6568 61 57.4853 61 59.2426 59.2426C61 57.4854 61 54.6568 61 49C61 43.3432 61 40.5147 59.2426 38.7574C57.9774 37.492 56.1568 37.1378 53.125 37.0386V36.922C53.125 35.5743 53.1251 34.4505 53.0051 33.5583C52.8785 32.6166 52.6 31.7664 51.9167 31.0832C51.2337 30.4 50.3834 30.1215 49.4417 29.9949C48.5496 29.8749 47.4258 29.875 46.078 29.875H45.922ZM50.875 37.0028V37C50.875 35.554 50.8726 34.5826 50.7752 33.8581C50.6821 33.1659 50.5213 32.8697 50.3258 32.6742C50.1304 32.4787 49.8342 32.3179 49.1419 32.2248C48.4174 32.1274 47.446 32.125 46 32.125C44.554 32.125 43.5826 32.1274 42.8581 32.2248C42.1659 32.3179 41.8696 32.4787 41.6742 32.6742C41.4787 32.8697 41.3179 33.1659 41.2248 33.8581C41.1274 34.5826 41.125 35.554 41.125 37V37.0028C41.713 37 42.3371 37 43 37H49C49.6628 37 50.287 37 50.875 37.0028ZM52 49C52 52.3137 49.3137 55 46 55C42.6863 55 40 52.3137 40 49C40 45.6864 42.6863 43 46 43C49.3137 43 52 45.6864 52 49Z" fill="#1B1B1B"/>
</svg>
