<svg width="92" height="92" viewBox="0 0 92 92" fill="none" xmlns="http://www.w3.org/2000/svg">
<circle cx="46" cy="46" r="46" fill="#DCDCDC"/>
<path d="M32.5 47.5C32.5 51.0804 33.9223 54.5142 36.4541 57.0459C38.9858 59.5777 42.4196 61 46 61C46 57.4196 44.5777 53.9858 42.0459 51.4541C39.5142 48.9223 36.0804 47.5 32.5 47.5ZM46 61C49.5804 61 53.0142 59.5777 55.5459 57.0459C58.0777 54.5142 59.5 51.0804 59.5 47.5C55.9196 47.5 52.4858 48.9223 49.9541 51.4541C47.4223 53.9858 46 57.4196 46 61ZM55 32.5V40C55 42.3869 54.0518 44.6761 52.364 46.364C50.6761 48.0518 48.3869 49 46 49C43.6131 49 41.3239 48.0518 39.636 46.364C37.9482 44.6761 37 42.3869 37 40V32.5C38.11 32.5 39.205 32.68 40.24 33.085C41.065 33.43 41.8 33.94 42.415 34.585L46 31L49.585 34.585C50.2 33.94 50.935 33.43 51.76 33.085C52.795 32.68 53.89 32.5 55 32.5Z" fill="#1B1B1B"/>
</svg>
