<svg width="93" height="92" viewBox="0 0 93 92" fill="none" xmlns="http://www.w3.org/2000/svg">
<circle cx="46.5" cy="46" r="46" fill="#DCDCDC"/>
<g clip-path="url(#clip0_4_99)">
<path d="M58.6081 30.8649H52.486C53.8681 32.3357 54.7163 34.3138 54.7163 36.4865C54.7163 40.5755 51.7135 43.9761 47.7973 44.5999V61.1351H58.6081C60.7541 61.1351 62.5 59.3892 62.5 57.2432V34.7567C62.5 32.6107 60.7541 30.8649 58.6081 30.8649ZM58.1757 55.0811H52.1216V52.4865H58.1757V55.0811ZM58.1757 49.8919H52.1216V47.2973H58.1757V49.8919Z" fill="#1B1B1B"/>
<path d="M38.2838 36.4865C38.2838 34.3138 39.1319 32.3357 40.5141 30.8649H34.3919C32.2459 30.8649 30.5 32.6107 30.5 34.7567V57.2432C30.5 59.3892 32.2459 61.1351 34.3919 61.1351H45.2027V44.5999C41.2865 43.9761 38.2838 40.5755 38.2838 36.4865ZM40.8784 55.0811H34.8243V52.4865H40.8784V55.0811ZM40.8784 49.8919H34.8243V47.2973H40.8784V49.8919Z" fill="#1B1B1B"/>
<path d="M47.7973 31.0177V36.4865H45.2027V31.0177C42.7266 31.6051 40.8784 33.8333 40.8784 36.4865C40.8784 39.5863 43.4002 42.1081 46.5 42.1081C49.5997 42.1081 52.1216 39.5863 52.1216 36.4865C52.1216 33.8333 50.2734 31.6051 47.7973 31.0177Z" fill="#1B1B1B"/>
</g>
<defs>
<clipPath id="clip0_4_99">
<rect width="32" height="32" fill="white" transform="translate(30.5 30)"/>
</clipPath>
</defs>
</svg>
